<?xml version="1.0" encoding="UTF-8"?>
<svg xmlns="http://www.w3.org/2000/svg" width="500" height="500" viewBox="0 0 500 500">
  <path d="M 237 327 L 231 329 L 221 335 L 216 340 L 210 350 L 207 361 L 207 377 L 210 388 L 215 397 L 222 404 L 230 409 L 240 412 L 259 412 L 269 409 L 276 405 L 285 396 L 290 386 L 290 382 L 259 382 L 254 388 L 246 389 L 243 388 L 238 383 L 236 376 L 237 375 L 292 375 L 292 359 L 289 349 L 285 342 L 276 333 L 266 328 L 257 326 Z M 236 360 L 239 354 L 242 351 L 246 350 L 247 349 L 252 349 L 253 350 L 257 351 L 261 355 L 262 357 L 262 360 L 261 361 L 237 361 Z M 129 307 L 129 326 L 128 327 L 119 327 L 119 351 L 128 351 L 129 352 L 129 387 L 130 388 L 131 395 L 135 402 L 138 405 L 145 409 L 151 410 L 152 411 L 174 411 L 174 386 L 162 386 L 159 383 L 158 380 L 158 353 L 160 351 L 174 351 L 174 327 L 159 327 L 158 326 L 158 307 Z M 323 300 L 323 411 L 352 411 L 353 378 L 375 411 L 411 411 L 378 370 L 411 327 L 375 327 L 353 359 L 352 300 Z M 264 223 L 263 224 L 260 224 L 256 227 L 255 227 L 250 233 L 249 237 L 248 238 L 248 241 L 247 242 L 247 250 L 248 251 L 248 255 L 251 261 L 257 267 L 261 269 L 263 269 L 264 270 L 272 270 L 273 269 L 276 269 L 280 267 L 286 261 L 288 257 L 288 255 L 289 254 L 289 248 L 290 247 L 289 245 L 289 239 L 288 238 L 288 236 L 286 232 L 277 224 L 274 224 L 273 223 Z M 268 228 L 269 229 L 273 229 L 277 231 L 281 235 L 283 239 L 283 241 L 284 242 L 284 251 L 283 252 L 283 254 L 281 258 L 277 262 L 273 264 L 269 264 L 268 265 L 267 264 L 264 264 L 260 262 L 256 258 L 253 252 L 253 241 L 254 240 L 255 236 L 261 230 L 267 229 Z M 350 200 L 349 201 L 349 290 L 384 290 L 384 200 Z M 356 206 L 378 206 L 379 207 L 379 284 L 378 285 L 356 285 L 355 284 L 355 207 Z M 231 214 L 228 218 L 223 229 L 222 238 L 221 239 L 221 254 L 225 269 L 229 276 L 236 284 L 246 290 L 253 292 L 269 292 L 275 290 L 283 285 L 284 286 L 284 291 L 315 291 L 315 202 L 284 202 L 284 207 L 283 208 L 278 204 L 270 201 L 257 200 L 256 201 L 248 202 L 240 206 Z M 236 217 L 240 213 L 251 207 L 254 207 L 255 206 L 266 206 L 267 207 L 271 207 L 277 210 L 284 217 L 289 226 L 290 226 L 290 208 L 291 207 L 309 207 L 310 208 L 310 285 L 309 286 L 291 286 L 290 285 L 290 267 L 279 281 L 270 286 L 256 287 L 255 286 L 251 286 L 243 282 L 232 270 L 227 256 L 227 236 L 229 229 Z M 119 177 L 119 288 L 148 288 L 149 255 L 171 288 L 207 288 L 174 247 L 207 204 L 171 204 L 149 236 L 148 177 Z M 352 167 L 352 168 L 349 171 L 348 175 L 347 176 L 347 184 L 348 185 L 349 189 L 352 193 L 362 198 L 372 198 L 373 197 L 378 196 L 383 192 L 387 184 L 387 176 L 386 175 L 385 171 L 382 168 L 382 167 L 372 162 L 362 162 Z M 367 167 L 368 168 L 372 168 L 373 169 L 375 169 L 380 174 L 381 176 L 381 185 L 376 190 L 372 192 L 368 192 L 367 193 L 366 192 L 362 192 L 358 190 L 354 186 L 353 184 L 353 176 L 354 174 L 359 169 L 361 169 L 362 168 L 366 168 Z M 408 74 L 407 75 L 401 75 L 392 79 L 388 83 L 387 83 L 387 84 L 383 88 L 382 87 L 382 75 L 357 75 L 357 159 L 382 159 L 382 118 L 383 117 L 383 112 L 385 108 L 388 105 L 392 103 L 394 103 L 395 102 L 409 102 L 409 75 Z M 259 86 L 256 90 L 250 104 L 250 109 L 249 110 L 249 125 L 250 126 L 250 130 L 252 137 L 255 143 L 261 151 L 266 155 L 274 159 L 282 160 L 283 161 L 289 161 L 290 160 L 298 159 L 308 153 L 311 149 L 312 150 L 312 159 L 338 159 L 338 75 L 312 75 L 312 84 L 311 85 L 306 80 L 299 76 L 292 75 L 291 74 L 281 74 L 280 75 L 273 76 L 267 79 Z M 288 97 L 299 97 L 303 99 L 309 105 L 311 109 L 311 111 L 312 112 L 312 123 L 311 124 L 311 126 L 309 130 L 303 136 L 299 137 L 298 138 L 289 138 L 283 135 L 277 128 L 276 122 L 275 121 L 275 113 L 276 112 L 276 109 L 278 105 L 284 99 Z M 116 54 L 116 159 L 141 159 L 142 98 L 165 159 L 187 158 L 209 99 L 210 159 L 236 159 L 236 54 L 205 54 L 176 126 L 147 55 Z" fill="#323B6A" fill-rule="evenodd"/>
</svg>
